#!OML:ASF I:\Actors\actors\Patient Classification 1\Patient 1\Session 1\Subject1.ASF
:FULLY-SPECIFIED
:DEGREES
271
root -0.570914 17.513 7.71051 5.99379 -5.74832 -7.43354
lowerback 2.51325 0.107126 4.87841
upperback -7.46902 0.587962 1.24445
thorax -9.28196 -0.0196369 -1.46845
lowerneck -13.5223 -1.06384 1.7488
upperneck 34.7874 -2.46337 0.702297
head 14.13 -0.774334 -0.421624
rclavicle 1.01877e-014 9.93923e-015
rhumerus -30.3791 55.1072 -101.983
rradius 110.236
rwrist 19.0779
rhand -6.87297 -58.5566
rfingers 7.12502
rthumb 18.993 -87.6493
lclavicle 1.01877e-014 9.93923e-015
lhumerus -39.9909 -28.7513 105.834
lradius 113.327
lwrist 81.479
lhand -55.3105 0.695507
lfingers 7.12502
lthumb -27.6771 28.6791
rfemur -1.65249 22.3491 26.2942
rtibia 5.12971
rfoot -10.8719 -17.4275
rtoes -3.82735
lfemur 10.3878 -38.2345 -18.1926
ltibia -3.78912
lfoot -23.2986 51.5372
ltoes 13.9038
272
root -0.580189 17.5123 7.71378 5.97301 -5.69993 -7.40124
lowerback 2.44079 0.193801 4.81081
upperback -7.47335 0.697929 1.27431
thorax -9.23673 0.0414948 -1.41012
lowerneck -13.523 -0.93245 1.90314
upperneck 34.678 -2.28102 0.641245
head 14.0788 -0.682508 -0.443555
rclavicle 9.44227e-016 1.98785e-015
rhumerus -29.96 55.2586 -101.658
rradius 109.487
rwrist 22.9779
rhand -7.51914 -57.5191
rfingers 7.12502
rthumb 18.3715 -86.6716
lclavicle 9.44227e-016 1.98785e-015
lhumerus -40.1096 -28.4522 105.512
lradius 112.689
lwrist 82.0601
lhand -55.8689 0.0185128
lfingers 7.12502
lthumb -28.2109 27.9152
rfemur -1.58563 22.3159 26.3125
rtibia 5.09539
rfoot -10.8984 -17.4654
rtoes -3.7376
lfemur 10.3981 -38.204 -18.2019
ltibia -3.77574
lfoot -23.0235 51.5164
ltoes 13.5231
273
root -0.586895 17.5116 7.71676 5.98059 -5.69154 -7.40593
lowerback 2.38753 0.282561 4.73032
upperback -7.49756 0.816566 1.36521
thorax -9.22585 0.109435 -1.28051
lowerneck -13.5922 -0.788188 2.01385
upperneck 34.6725 -2.06474 0.55901
head 14.0909 -0.582688 -0.462213
rclavicle 6.95746e-016 -4.13472e-014
rhumerus -29.4289 55.6013 -101.045
rradius 108.856
rwrist 27.6037
rhand -8.26522 -56.29
rfingers 7.12502
rthumb 17.6536 -85.5085
lclavicle 6.95746e-016 -4.13472e-014
lhumerus -40.3021 -28.1318 105.372
lradius 112.074
lwrist 81.4779
lhand -56.1537 -0.794427
lfingers 7.12502
lthumb -28.4831 27.057
rfemur -1.55061 22.3233 26.357
rtibia 5.06408
rfoot -10.9125 -17.4952
rtoes -3.67598
lfemur 10.4478 -38.2592 -18.2088
ltibia -3.80892
lfoot -23.1011 51.5785
ltoes 13.6431
274
root -0.590472 17.5107 7.71885 5.98973 -5.70206 -7.38506
lowerback 2.40321 0.330019 4.6607
upperback -7.57764 0.886312 1.44856
thorax -9.3215 0.149325 -1.1601
lowerneck -13.5953 -0.582882 2.24088
upperneck 34.7483 -1.74095 0.333002
head 14.1235 -0.440468 -0.542535
rclavicle 4.96962e-016 3.22031e-014
rhumerus -28.9575 56.0856 -100.467
rradius 108.179
rwrist 32.0192
rhand -9.15962 -54.9294
rfingers 7.12502
rthumb 16.7928 -84.2232
lclavicle 4.96962e-016 3.22031e-014
lhumerus -40.6311 -27.7166 105.314
lradius 111.447
lwrist 79.5616
lhand -56.3596 -1.99769
lfingers 7.12502
lthumb -28.6798 25.8207
rfemur -1.52359 22.3064 26.3418
rtibia 4.99362
rfoot -10.8832 -17.4733
rtoes -3.58456
lfemur 10.4966 -38.2937 -18.2473
ltibia -3.85995
lfoot -23.2391 51.6196
ltoes 13.7747
275
root -0.592592 17.5111 7.71983 6.0234 -5.71902 -7.40354
lowerback 2.42345 0.38119 4.66738
upperback -7.67898 0.966155 1.51122
thorax -9.44304 0.186887 -1.10518
lowerneck -13.4986 -0.37828 2.5331
upperneck 34.7209 -1.42383 0.0862662
head 14.088 -0.29731 -0.642621
rclavicle -4.67144e-015 2.06736e-014
rhumerus -28.4192 56.4766 -99.8215
rradius 107.512
rwrist 35.2736
rhand -9.91131 -53.5228
rfingers 7.12502
rthumb 16.069 -82.8765
lclavicle -4.67144e-015 2.06736e-014
lhumerus -40.9983 -27.3582 105.325
lradius 110.781
lwrist 76.5258
lhand -56.8511 -4.6998
lfingers 7.12502
lthumb -29.1493 23.0382
rfemur -1.51941 22.2528 26.3449
rtibia 4.89412
rfoot -10.8378 -17.4087
rtoes -3.40304
lfemur 10.4148 -38.1052 -18.1126
ltibia -3.90135
lfoot -23.1802 51.4763
ltoes 13.6261
276
root -0.593787 17.5133 7.72001 6.0982 -5.73319 -7.45652
lowerback 2.3426 0.435096 4.69559
upperback -7.73855 1.04405 1.58641
thorax -9.45832 0.225215 -1.04807
lowerneck -13.377 -0.219464 2.55275
upperneck 34.5195 -1.22785 0.222176
head 13.9747 -0.192481 -0.558235
rclavicle 1.19271e-014 -3.61788e-014
rhumerus -27.7241 56.8414 -99.0391
rradius 106.937
rwrist 36.8102
rhand -10.4126 -52.3394
rfingers 7.12502
rthumb 15.5863 -81.7314
lclavicle 1.19271e-014 -3.61788e-014
lhumerus -41.2505 -26.9913 105.356
lradius 110.192
lwrist 73.0443
lhand -57.6571 -9.14521
lfingers 7.12502
lthumb -29.9188 18.4567
rfemur -1.54633 22.2419 26.3767
rtibia 4.78213
rfoot -10.7922 -17.3844
rtoes -3.17936
lfemur 10.2783 -37.9978 -17.9274
ltibia -3.90367
lfoot -23.3066 51.3496
ltoes 13.921
